<svg width="8" height="8" viewBox="0 0 8 8" fill="none" xmlns="http://www.w3.org/2000/svg">
<path d="M1.13201 3.15461C1.09347 3.12999 1.048 3.11497 1.00153 3.11695C0.955088 3.11891 0.911876 3.13728 0.880316 3.16911C0.848757 3.20095 0.830763 3.24432 0.829211 3.29078C0.827632 3.33726 0.843046 3.3826 0.867994 3.42092C0.977092 3.58775 1.08912 3.75162 1.20409 3.91253C1.34465 4.10927 1.48961 4.30158 1.63894 4.48948L1.59279 4.4348C1.83252 4.89642 2.08936 5.36905 2.33221 5.82154C2.54441 6.21843 2.76166 6.68606 2.7901 6.97728C2.79191 7.00358 2.79403 7.03063 2.80146 7.07054C2.8069 7.09013 2.81013 7.14724 2.86828 7.24857C2.88411 7.27477 2.90529 7.30533 2.9375 7.33882C2.98397 7.39148 3.11136 7.4801 3.25195 7.48881C3.554 7.49769 3.64276 7.33524 3.65242 7.33863C3.7551 7.22173 3.74792 7.19639 3.76276 7.17275C3.77357 7.1487 3.78256 7.12502 3.78701 7.1128C3.80972 7.04997 3.82229 7.00572 3.83506 6.96211C3.86122 6.87129 3.88191 6.79236 3.90425 6.70765C3.94711 6.54394 3.98851 6.38243 4.03089 6.22152C4.11521 5.90079 4.2028 5.58263 4.2978 5.27014C4.48938 4.64603 4.70536 4.02641 5.00942 3.49193C5.4331 2.76242 6.0096 2.09937 6.66244 1.51839C6.80373 1.39336 6.95517 1.26711 7.09843 1.15958C7.13747 1.13146 7.16604 1.09012 7.17663 1.04266C7.18724 0.995215 7.17919 0.945848 7.154 0.905012C7.12881 0.864176 7.08831 0.834824 7.04116 0.82301C6.99399 0.811177 6.94422 0.818153 6.90157 0.840415C6.71901 0.940045 6.55172 1.04546 6.38441 1.15752C5.62206 1.67361 4.92616 2.30636 4.3752 3.0836C3.95743 3.68764 3.68461 4.33411 3.44322 4.98294C3.32428 5.30695 3.21684 5.63489 3.11692 5.96108C3.06682 6.12441 3.01856 6.28802 2.9714 6.44707C2.94717 6.52868 2.92446 6.60504 2.90086 6.67919C2.89012 6.71281 2.87726 6.75099 2.87028 6.76782C2.86906 6.77078 2.86752 6.77376 2.87026 6.76727C2.87827 6.75877 2.85823 6.75967 2.94963 6.65408C2.958 6.65909 3.03901 6.50332 3.33633 6.51116C3.47442 6.51971 3.59916 6.60677 3.64378 6.65744C3.67484 6.68974 3.69491 6.71883 3.70968 6.74326C3.7638 6.83877 3.76252 6.87876 3.76653 6.88973C3.77092 6.91346 3.77075 6.91928 3.77099 6.91908C3.69944 6.23487 3.44647 5.81419 3.21413 5.35013C2.94493 4.84958 2.62472 4.39731 2.25336 3.97094L2.20721 3.91626C2.01803 3.76856 1.82446 3.62528 1.62651 3.48643C1.46461 3.37286 1.29977 3.26225 1.13201 3.15461Z" fill="#C6B7FF"/>
</svg>
